<svg xmlns="http://www.w3.org/2000/svg" xmlns:xlink="http://www.w3.org/1999/xlink" width="1650" height="542.75"><rect width="1650" height="542.75" rx="0" ry="0" class="a"/><svg height="542.75" viewBox="0 0 165 54.275" width="1650" xmlns="http://www.w3.org/2000/svg" xmlns:xlink="http://www.w3.org/1999/xlink"><style>@keyframes h{0%{transform:translateX(0)}4%{transform:translateX(-330px)}4.4%{transform:translateX(-825px)}10.8%{transform:translateX(-990px)}11.5%{transform:translateX(-1155px)}13.6%{transform:translateX(-1320px)}15.1%{transform:translateX(-1485px)}35.9%{transform:translateX(-2145px)}36.5%{transform:translateX(-2310px)}55.1%{transform:translateX(-2475px)}57.2%{transform:translateX(-2640px)}58.9%{transform:translateX(-2805px)}59.7%{transform:translateX(-2970px)}62.1%{transform:translateX(-3135px)}71.8%{transform:translateX(-3300px)}72.9%{transform:translateX(-3465px)}73.5%{transform:translateX(-3630px)}78.1%{transform:translateX(-4455px)}78.7%{transform:translateX(-4950px)}to{transform:translateX(-5280px)}}.a{fill:#282d35}.c,.d{fill:#a8cc8c;font-weight:700}.d{fill:#66c2cd}.e{fill:#b9c0cb}</style><g font-size="1.67" font-family="Monaco,Consolas,Menlo,'Bitstream Vera Sans Mono','Powerline Symbols',monospace"><defs><symbol id="1"><text y="1.67" class="c">➜</text><text x="3.006" y="1.67" class="d">~</text></symbol><symbol id="2"><text y="1.67" class="c">➜</text><text x="3.006" y="1.67" class="d">~</text><text x="5.01" y="1.67" class="e">time</text></symbol><symbol id="3"><text y="1.67" class="e">shell</text><text x="7.014" y="1.67" class="e">0.14s</text><text x="13.026" y="1.67" class="e">user</text><text x="18.036" y="1.67" class="e">0.09s</text><text x="24.048" y="1.67" class="e">system</text><text x="31.062" y="1.67" class="e">8%</text><text x="34.068" y="1.67" class="e">cpu</text><text x="38.076" y="1.67" class="e">2.761</text><text x="44.088" y="1.67" class="e">total</text></symbol><symbol id="4"><text y="1.67" class="e">children</text><text x="10.02" y="1.67" class="e">0.03s</text><text x="16.032" y="1.67" class="e">user</text><text x="21.042" y="1.67" class="e">0.05s</text><text x="27.054" y="1.67" class="e">system</text><text x="34.068" y="1.67" class="e">2%</text><text x="37.074" y="1.67" class="e">cpu</text><text x="41.082" y="1.67" class="e">2.761</text><text x="47.094" y="1.67" class="e">total</text></symbol><symbol id="5"><text y="1.67" class="c">➜</text><text x="3.006" y="1.67" class="d">~</text><text x="5.01" y="1.67" class="e">echo</text></symbol><symbol id="6"><text y="1.67" class="c">➜</text><text x="3.006" y="1.67" class="d">~</text><text x="5.01" y="1.67" class="e">echo</text><text x="10.02" y="1.67" class="e">123</text></symbol><symbol id="7"><text y="1.67" class="e">123</text></symbol><symbol id="a"><path fill="transparent" d="M0 0h165v25H0z"/></symbol><symbol id="b"><path fill="#6f7683" d="M0 0h1.102v2.171H0z"/></symbol></defs><path class="a" d="M0 0h165v54.275H0z"/><g style="animation-duration:7.742705s;animation-iteration-count:infinite;animation-name:h;animation-timing-function:steps(1,end)"><svg width="5445"><svg><use xlink:href="#a"/><use xlink:href="#b" x="-.004"/></svg><svg x="165"><use xlink:href="#a"/><use xlink:href="#b" x="-.004"/></svg><svg x="330"><use xlink:href="#a"/><use xlink:href="#b" x="-.004"/></svg><svg x="495"><use xlink:href="#a"/><use xlink:href="#b" x="4.996"/><use xlink:href="#1"/></svg><svg x="660"><use xlink:href="#a"/><use xlink:href="#b" x="4.996"/><use xlink:href="#1"/></svg><svg x="825"><use xlink:href="#a"/><use xlink:href="#b" x="4.996"/><use xlink:href="#1"/></svg><svg x="990"><use xlink:href="#a"/><use xlink:href="#b" x="5.996"/><text y="1.67" class="c">➜</text><text x="3.006" y="1.67" class="d">~</text><text x="5.01" y="1.67" class="e">t</text></svg><svg x="1155"><use xlink:href="#a"/><use xlink:href="#b" x="6.996"/><text y="1.67" class="c">➜</text><text x="3.006" y="1.67" class="d">~</text><text x="5.01" y="1.67" class="e">ti</text></svg><svg x="1320"><use xlink:href="#a"/><use xlink:href="#b" x="7.996"/><text y="1.67" class="c">➜</text><text x="3.006" y="1.67" class="d">~</text><text x="5.01" y="1.67" class="e">tim</text></svg><svg x="1485"><use xlink:href="#a"/><use xlink:href="#b" x="8.996"/><use xlink:href="#2"/></svg><svg x="1650"><use xlink:href="#a"/><use xlink:href="#b" x="8.996"/><use xlink:href="#2"/></svg><svg x="1815"><use xlink:href="#a"/><use xlink:href="#b" x="-.004" y="2.146"/><use xlink:href="#2"/></svg><svg x="1980"><use xlink:href="#a"/><use xlink:href="#b" x="-.004" y="2.146"/><use xlink:href="#2"/></svg><svg x="2145"><use xlink:href="#a"/><use xlink:href="#b" x="-.004" y="6.488"/><use xlink:href="#2"/><use xlink:href="#3" y="2.171"/><use xlink:href="#4" y="4.342"/></svg><svg x="2310"><use xlink:href="#a"/><use xlink:href="#b" x="4.996" y="6.488"/><use xlink:href="#2"/><use xlink:href="#3" y="2.171"/><use xlink:href="#4" y="4.342"/><use xlink:href="#1" y="6.513"/></svg><svg x="2475"><use xlink:href="#a"/><use xlink:href="#b" x="5.996" y="6.488"/><use xlink:href="#2"/><use xlink:href="#3" y="2.171"/><use xlink:href="#4" y="4.342"/><text y="8.183" class="c">➜</text><text x="3.006" y="8.183" class="d">~</text><text x="5.01" y="8.183" class="e">e</text></svg><svg x="2640"><use xlink:href="#a"/><use xlink:href="#b" x="6.996" y="6.488"/><use xlink:href="#2"/><use xlink:href="#3" y="2.171"/><use xlink:href="#4" y="4.342"/><text y="8.183" class="c">➜</text><text x="3.006" y="8.183" class="d">~</text><text x="5.01" y="8.183" class="e">ec</text></svg><svg x="2805"><use xlink:href="#a"/><use xlink:href="#b" x="7.996" y="6.488"/><use xlink:href="#2"/><use xlink:href="#3" y="2.171"/><use xlink:href="#4" y="4.342"/><text y="8.183" class="c">➜</text><text x="3.006" y="8.183" class="d">~</text><text x="5.01" y="8.183" class="e">ech</text></svg><svg x="2970"><use xlink:href="#a"/><use xlink:href="#b" x="8.996" y="6.488"/><use xlink:href="#2"/><use xlink:href="#3" y="2.171"/><use xlink:href="#4" y="4.342"/><use xlink:href="#5" y="6.513"/></svg><svg x="3135"><use xlink:href="#a"/><use xlink:href="#b" x="9.996" y="6.488"/><use xlink:href="#2"/><use xlink:href="#3" y="2.171"/><use xlink:href="#4" y="4.342"/><use xlink:href="#5" y="6.513"/></svg><svg x="3300"><use xlink:href="#a"/><use xlink:href="#b" x="10.996" y="6.488"/><use xlink:href="#2"/><use xlink:href="#3" y="2.171"/><use xlink:href="#4" y="4.342"/><text y="8.183" class="c">➜</text><text x="3.006" y="8.183" class="d">~</text><text x="5.01" y="8.183" class="e">echo</text><text x="10.02" y="8.183" class="e">1</text></svg><svg x="3465"><use xlink:href="#a"/><use xlink:href="#b" x="11.996" y="6.488"/><use xlink:href="#2"/><use xlink:href="#3" y="2.171"/><use xlink:href="#4" y="4.342"/><text y="8.183" class="c">➜</text><text x="3.006" y="8.183" class="d">~</text><text x="5.01" y="8.183" class="e">echo</text><text x="10.02" y="8.183" class="e">12</text></svg><svg x="3630"><use xlink:href="#a"/><use xlink:href="#b" x="12.996" y="6.488"/><use xlink:href="#2"/><use xlink:href="#3" y="2.171"/><use xlink:href="#4" y="4.342"/><use xlink:href="#6" y="6.513"/></svg><svg x="3795"><use xlink:href="#a"/><use xlink:href="#b" x="12.996" y="6.488"/><use xlink:href="#2"/><use xlink:href="#3" y="2.171"/><use xlink:href="#4" y="4.342"/><use xlink:href="#6" y="6.513"/></svg><svg x="3960"><use xlink:href="#a"/><use xlink:href="#b" x="-.004" y="8.659"/><use xlink:href="#2"/><use xlink:href="#3" y="2.171"/><use xlink:href="#4" y="4.342"/><use xlink:href="#6" y="6.513"/></svg><svg x="4125"><use xlink:href="#a"/><use xlink:href="#b" x="-.004" y="8.659"/><use xlink:href="#2"/><use xlink:href="#3" y="2.171"/><use xlink:href="#4" y="4.342"/><use xlink:href="#6" y="6.513"/></svg><svg x="4290"><use xlink:href="#a"/><use xlink:href="#b" x="-.004" y="10.83"/><use xlink:href="#2"/><use xlink:href="#3" y="2.171"/><use xlink:href="#4" y="4.342"/><use xlink:href="#6" y="6.513"/><use xlink:href="#7" y="8.684"/></svg><svg x="4455"><use xlink:href="#a"/><use xlink:href="#b" x="-.004" y="10.83"/><use xlink:href="#2"/><use xlink:href="#3" y="2.171"/><use xlink:href="#4" y="4.342"/><use xlink:href="#6" y="6.513"/><use xlink:href="#7" y="8.684"/></svg><svg x="4620"><use xlink:href="#a"/><use xlink:href="#b" x="4.996" y="10.83"/><use xlink:href="#2"/><use xlink:href="#3" y="2.171"/><use xlink:href="#4" y="4.342"/><use xlink:href="#6" y="6.513"/><use xlink:href="#7" y="8.684"/><use xlink:href="#1" y="10.855"/></svg><svg x="4785"><use xlink:href="#a"/><use xlink:href="#b" x="4.996" y="10.83"/><use xlink:href="#2"/><use xlink:href="#3" y="2.171"/><use xlink:href="#4" y="4.342"/><use xlink:href="#6" y="6.513"/><use xlink:href="#7" y="8.684"/><use xlink:href="#1" y="10.855"/></svg><svg x="4950"><use xlink:href="#a"/><use xlink:href="#b" x="4.996" y="10.83"/><use xlink:href="#2"/><use xlink:href="#3" y="2.171"/><use xlink:href="#4" y="4.342"/><use xlink:href="#6" y="6.513"/><use xlink:href="#7" y="8.684"/><use xlink:href="#1" y="10.855"/></svg><svg x="5115"><use xlink:href="#a"/><use xlink:href="#b" x="4.996" y="10.83"/><use xlink:href="#2"/><use xlink:href="#3" y="2.171"/><use xlink:href="#4" y="4.342"/><use xlink:href="#6" y="6.513"/><use xlink:href="#7" y="8.684"/><use xlink:href="#1" y="10.855"/></svg><svg x="5280"><use xlink:href="#a"/><use xlink:href="#b" x="-.004" y="13.001"/><use xlink:href="#2"/><use xlink:href="#3" y="2.171"/><use xlink:href="#4" y="4.342"/><use xlink:href="#6" y="6.513"/><use xlink:href="#7" y="8.684"/><use xlink:href="#1" y="10.855"/></svg></svg></g></g></svg></svg>